# xmcd
#
# Track frame offsets: 
#        150
#        14012
#        28937
#        46540
#        61811
#        80667
#        96556
#
# Disc length: 1535 seconds
#
# Revision: 0
# Processed by: cddbd v1.5.2PL0 Copyright (c) Steve Scherf et al.
# Submitted via: ExactAudioCopyFreeDBPlugin 1.0
#
DISCID=5605fd07
DTITLE=The Bellyachers - Bottoms Up
DYEAR=1999
DGENRE=Country
TTITLE0=What I've Got
TTITLE1=Love Stay In This Home
TTITLE2=We Blamed Nashville
TTITLE3=Big Talkin' Man
TTITLE4=Lela
TTITLE5=Pushing It So Hard
TTITLE6=Bottoms Up
EXTD=
EXTT0=
EXTT1=
EXTT2=
EXTT3=
EXTT4=
EXTT5=
EXTT6=
PLAYORDER=
